# AST/ASF file generated using VICON BodyLanguage
# -----------------------------------------------
:version 1.10
:name VICON
:units
  mass 1.0
  length 0.45
  angle deg
:documentation
   .ast/.asf automatically generated from VICON data using
   VICON BodyBuilder and BodyLanguage model FoxedUp or BRILLIANT.MOD
:root
   order TX TY TZ RX RY RZ
   axis XYZ
   position 0 0 0  
   orientation 0 0 0 
:bonedata
  begin
     id 1 
     name lhipjoint
     direction 0.78388 -0.462562 0.414208 
     length 3.01181 
     axis 0 0 0  XYZ
  end
  begin
     id 2 
     name lfemur
     direction 0.34202 -0.939693 0  
     length 6.04673  
     axis 0 0 20  XYZ
    dof rx ry rz
    limits (-160.0 20.0)
           (-70.0 70.0)
           (-60.0 70.0)
  end
  begin
     id 3 
     name ltibia
     direction 0.34202 -0.939693 0   
     length 7.211   
     axis 0 0 20   XYZ
    dof rx
    limits (-10.0 170.0)
  end
  begin
     id 4 
     name lfoot
     direction 0.121887 -0.334882 0.934344   
     length 2.13567   
     axis -90 7.62852e-016 20   XYZ
    dof rx rz
    limits (-45.0 90.0)
           (-70.0 20.0)
  end
  begin
     id 5 
     name ltoes
     direction 1.53555e-011 -4.2179e-011 1   
     length 1.05957   
     axis -90 7.62852e-016 20   XYZ
    dof rx
    limits (-90.0 20.0)
  end
  begin
     id 6 
     name rhipjoint
     direction -0.769387 -0.475875 0.426129   
     length 2.92756  
     axis 0 0 0  XYZ 
  end
  begin
     id 7 
     name rfemur
     direction -0.34202 -0.939693 0   
     length 6.35468   
     axis 0 0 -20   XYZ
    dof rx ry rz
    limits (-160.0 20.0)
           (-70.0 70.0)
           (-70.0 60.0)
  end
  begin
     id 8 
     name rtibia
     direction -0.34202 -0.939693 0   
     length 7.37886   
     axis 0 0 -20   XYZ
    dof rx
    limits (-10.0 170.0)
 end
 begin
     id 9 
     name rfoot
     direction -0.101763 -0.279592 0.954711   
     length 2.21478  
     axis -90 -7.62852e-016 -20   XYZ
    dof rx rz
    limits (-45.0 90.0)
           (-20.0 70.0)
  end
  begin
     id 10 
     name rtoes
     direction -1.53494e-011 -4.21851e-011 1   
     length 1.10506   
     axis -90 -7.62852e-016 -20   XYZ
    dof rx
    limits (-90.0 20.0)
  end
  begin
     id 11 
     name lowerback
     direction 0.00747405 0.999267 0.0375481   
     length 2.13259   
     axis 0 0 0   XYZ
    dof rx ry rz
    limits (-20.0 45.0)
           (-30.0 30.0)
           (-30.0 30.0)
  end
  begin
     id 12 
     name upperback
     direction 0.00661626 0.996177 0.0871029   
     length 2.10528   
     axis 0 0 0   XYZ
    dof rx ry rz
    limits (-20.0 45.0)
           (-30.0 30.0)
           (-30.0 30.0)
  end
  begin
     id 13 
     name thorax
     direction 0.00320659 0.997679 0.0680167   
     length 2.11338   
     axis 0 0 0   XYZ
    dof rx ry rz
    limits (-20.0 45.0)
           (-30.0 30.0)
           (-30.0 30.0)
  end
  begin
     id 14 
     name lowerneck
     direction 0.0374841 0.973033 0.227602   
     length 1.42765   
     axis 0 0 0   XYZ
    dof rx ry rz
    limits (-20.0 45.0)
           (-30.0 30.0)
           (-30.0 30.0)
  end
  begin
     id 15 
     name upperneck
     direction 0.00481585 0.989155 -0.146795   
     length 1.47593   
     axis 0 0 0   XYZ
    dof rx ry rz
    limits (-20.0 45.0)
           (-30.0 30.0)
           (-30.0 30.0)
  end
  begin
     id 16
     name head
     direction -0.00292522 0.997206 -0.0746423  
     length 1.48116  
     axis 0 0 0   XYZ
    dof rx ry rz
    limits (-20.0 45.0)
           (-30.0 30.0)
           (-30.0 30.0)
  end
  begin
     id 17 
     name lclavicle
     direction 0.951444 0.305606 0.0368784  
     length 3.01855  
     axis 0 0 0   XYZ
    dof ry rz
    limits (-20.0 10.0)
           (0.0 20.0)
  end
  begin
     id 18 
     name lhumerus
     direction 1 -4.48977e-011 2.61664e-027   
     length 5.52731   
     axis 180 -30 -90   XYZ
    dof rx ry rz
    limits (-60.0 90.0)
           (-90.0 90.0)
           (-90.0 90.0)
  end
  begin
     id 19
     name lradius
     direction 1 -4.48944e-011 8.22157e-027   
     length 3.11059   
     axis 180 -30 -90   XYZ
    dof rx
    limits (-10.0 170.0)
  end
  begin
     id 20
     name lwrist
     direction 1 -4.48976e-011 1.5779e-026   
     length 1.5553   
     axis -1.15221e-014 90 90   XYZ
    dof ry
    limits (-180.0 0.0)
 end
  begin
     id 21 
     name lhand
     direction 1 -4.49025e-011 3.1558e-026   
     length 0.419626   
     axis -2.01367e-014 90 90   XYZ
    dof rx rz
    limits (-90.0 90.0)
           (-45.0 45.0)
  end
  begin
     id 22 
     name lfingers
     direction 1 -4.4904e-011 6.31161e-026   
     length 0.338313   
     axis -4.02734e-014 90 90   XYZ
    dof rx
    limits (0.0 90.0)
  end
  begin
     id 23
     name lthumb
     direction 0.707107 -6.35004e-011 0.707107   
     length 0.485752   
     axis -90 45 2.85299e-015   XYZ
    dof rx rz
    limits (-45.0 45.0)
           (-45.0 45.0)
  end
  begin
     id 24 
     name rclavicle
     direction -0.968876 0.223791 0.105816   
     length 3.04177  
     axis 0 0 0   XYZ 
    dof ry rz
    limits (-10.0 20.0)
           (-20.0 0.0)
  end
  begin
     id 25 
     name rhumerus
     direction -1 -4.48962e-011 -1.01384e-027  
     length 5.25396   
     axis 180 30 90   XYZ
    dof rx ry rz
    limits (-90.0 60.0)
           (-90.0 90.0)
           (-90.0 90.0)
  end
  begin
     id 26 
     name rradius
     direction -1 -4.48955e-011 8.88542e-027   
     length 3.10567   
     axis 180 30 90   XYZ
    dof rx
    limits (-10.0 170.0)
  end
  begin
     id 27 
     name rwrist
     direction -1 -4.48994e-011 1.5779e-026   
     length 1.55283   
     axis -1.15221e-014 -90 -90   XYZ
    dof ry
    limits (-180.0 0.0)
  end
  begin
     id 28
     name rhand
     direction -1 -4.48891e-011 3.1558e-026   
     length 0.498676   
     axis -2.01367e-014 -90 -90   XYZ
    dof rx rz
    limits (-90.0 90.0)
           (-45.0 45.0)
  end
  begin
     id 29
     name rfingers
     direction -1 -4.48972e-011 6.31161e-026   
     length 0.402045   
     axis -4.02734e-014 -90 -90   XYZ
    dof rx
    limits (0.0 90.0)
  end
  begin
     id 30
     name rthumb
     direction -0.707107 -6.34849e-011 0.707107   
     length 0.577259   
     axis -90 -45 -2.85299e-015   XYZ
    dof rx rz
    limits (-45.0 45.0)
           (-45.0 45.0)
  end
:hierarchy
  begin
    root lhipjoint rhipjoint lowerback
    lhipjoint lfemur
    lfemur ltibia
    ltibia lfoot
    lfoot ltoes
    rhipjoint rfemur
    rfemur rtibia
    rtibia rfoot
    rfoot rtoes
    lowerback upperback
    upperback thorax
    thorax lowerneck lclavicle rclavicle
    lowerneck upperneck
    upperneck head
    lclavicle lhumerus
    lhumerus lradius
    lradius lwrist
    lwrist lhand lthumb
    lhand lfingers
    rclavicle rhumerus
    rhumerus rradius
    rradius rwrist
    rwrist rhand rthumb
    rhand rfingers
  end

#!OML:ASF H:\Pregnant\Project 1\Capture day 1\Session 1\femalepreg.ASF
:FULLY-SPECIFIED
:DEGREES
23
root 3.47449 14.495 32.305 165.258 -84.948 -141.877
lowerback -9.3491 2.52905 -2.73188
upperback -5.1868 3.39819 0.286045
thorax -0.329744 1.68841 2.12197
lowerneck -15.5365 13.8093 18.0698
upperneck 20.4917 11.6933 8.87053
head 9.84147 7.57253 1.93417
rclavicle 1.52567e-014 -7.95139e-015
rhumerus -42.018 11.4082 -86.469
rradius 83.3355
rwrist -70.4086
rhand 16.866 -41.9612
rfingers 7.12502
rthumb 41.6051 -66.6821
lclavicle 1.52567e-014 -7.95139e-015
lhumerus -27.8932 -10.2178 85.373
lradius 57.4429
lwrist 56.8417
lhand -4.67471 14.0125
lfingers 7.12502
lthumb 21.1059 42.8838
rfemur -65.2407 5.47745 21.4475
rtibia 75.3671
rfoot -15.2555 -9.72399
rtoes -2.0609
lfemur -51.5258 -1.15502 -23.5887
ltibia 48.8432
lfoot -18.7191 1.83992
ltoes -3.18432
24
root 3.47602 14.4862 32.2946 165.273 -84.9037 -141.944
lowerback -9.36837 2.55276 -2.75805
upperback -5.12058 3.4361 0.300317
thorax -0.255073 1.70754 2.15738
lowerneck -15.2761 13.8372 18.1758
upperneck 20.6304 11.6885 9.0702
head 9.84651 7.59876 1.97924
rclavicle 2.5842e-014 1.07344e-014
rhumerus -42.4271 12.0747 -86.4539
rradius 83.3056
rwrist -70.4525
rhand 18.4953 -42.3547
rfingers 7.12502
rthumb 43.1308 -66.5543
lclavicle 2.5842e-014 1.07344e-014
lhumerus -27.8487 -9.52615 85.0803
lradius 57.2446
lwrist 57.4008
lhand -4.05459 14.2592
lfingers 7.12502
lthumb 21.7015 43.0628
rfemur -64.965 5.1585 21.2782
rtibia 75.5909
rfoot -15.2088 -9.82041
rtoes -3.27976
lfemur -51.5849 -1.10298 -23.5377
ltibia 49.0415
lfoot -18.7751 1.85834
ltoes -3.15881
25
root 3.47629 14.4788 32.2829 165.374 -84.8667 -142.099
lowerback -9.40198 2.57794 -2.78735
upperback -5.0552 3.47644 0.306976
thorax -0.173351 1.72759 2.18766
lowerneck -15.0176 13.8518 18.313
upperneck 20.7662 11.6676 9.22839
head 9.85513 7.6154 2.00395
rclavicle -9.96408e-015 -1.21259e-014
rhumerus -42.8489 12.692 -86.4397
rradius 83.1965
rwrist -70.3599
rhand 20.0809 -42.6598
rfingers 7.12502
rthumb 44.6104 -66.3112
lclavicle -9.96408e-015 -1.21259e-014
lhumerus -27.802 -8.83977 84.7644
lradius 56.9868
lwrist 58.0142
lhand -3.57746 14.4796
lfingers 7.12502
lthumb 22.1597 43.2296
rfemur -64.6188 4.83305 21.0875
rtibia 75.7212
rfoot -15.1144 -9.96854
rtoes -5.00809
lfemur -51.6124 -1.04856 -23.4943
ltibia 49.1951
lfoot -18.8193 1.86988
ltoes -3.15374
26
root 3.47535 14.4741 32.2704 165.621 -84.834 -142.401
lowerback -9.45029 2.60209 -2.823
upperback -4.9899 3.51624 0.307147
thorax -0.0837087 1.74713 2.21561
lowerneck -14.769 13.8502 18.4136
upperneck 20.8911 11.6286 9.40668
head 9.85684 7.62262 2.03698
rclavicle 1.86112e-014 2.00773e-014
rhumerus -43.2821 13.277 -86.4303
rradius 83.0134
rwrist -70.1555
rhand 21.5681 -42.8345
rfingers 7.12502
rthumb 45.9929 -65.9319
lclavicle 1.86112e-014 2.00773e-014
lhumerus -27.7584 -8.16287 84.4247
lradius 56.6784
lwrist 58.6562
lhand -3.27862 14.6688
lfingers 7.12502
lthumb 22.4465 43.3844
rfemur -64.2137 4.52075 20.8407
rtibia 75.7589
rfoot -15.0602 -10.0587
rtoes -6.22597
lfemur -51.6013 -0.989557 -23.4632
ltibia 49.2987
lfoot -18.8563 1.87911
ltoes -3.16898
27
root 3.47339 14.4715 32.257 165.931 -84.8044 -142.765
lowerback -9.51409 2.62838 -2.85665
upperback -4.92543 3.55905 0.301334
thorax 0.0138352 1.76779 2.23741
lowerneck -14.5208 13.8311 18.4797
upperneck 21.0082 11.5768 9.58314
head 9.85238 7.62109 2.07079
rclavicle -3.60049e-014 -9.34288e-015
rhumerus -43.7285 13.8134 -86.4215
rradius 82.769
rwrist -69.8887
rhand 22.8546 -42.9162
rfingers 7.12502
rthumb 47.1845 -65.5007
lclavicle -3.60049e-014 -9.34288e-015
lhumerus -27.7194 -7.51178 84.0686
lradius 56.3251
lwrist 59.3016
lhand -3.18972 14.8036
lfingers 7.12502
lthumb 22.5319 43.5089
rfemur -63.7535 4.21873 20.561
rtibia 75.7072
rfoot -15.0309 -10.1482
rtoes -7.18502
lfemur -51.5627 -0.93308 -23.4326
ltibia 49.3596
lfoot -18.8828 1.88884
ltoes -3.17311
28
root 3.47046 14.4707 32.2423 166.258 -84.7702 -143.143
lowerback -9.59113 2.66301 -2.88105
upperback -4.86186 3.61255 0.28658
thorax 0.118203 1.79327 2.24658
lowerneck -14.2879 13.7921 18.5295
upperneck 21.1212 11.5018 9.75008
head 9.84751 7.60684 2.10047
rclavicle 1.69464e-014 -1.17283e-014
rhumerus -44.1808 14.2612 -86.4009
rradius 82.459
rwrist -69.5349
rhand 24.0263 -42.9596
rfingers 7.12502
rthumb 48.2657 -65.0474
lclavicle 1.69464e-014 -1.17283e-014
lhumerus -27.6856 -6.90924 83.697
lradius 55.9314
lwrist 59.9179
lhand -3.3194 14.8713
lfingers 7.12502
lthumb 22.4074 43.5917
rfemur -63.2371 3.9292 20.2749
rtibia 75.5642
rfoot -14.9794 -10.3069
rtoes -8.27103
lfemur -51.4979 -0.868912 -23.3971
ltibia 49.3789
lfoot -18.8961 1.89841
ltoes -3.20201
29
root 3.46761 14.4727 32.2264 166.63 -84.7401 -143.532
lowerback -9.70331 2.69645 -2.90636
upperback -4.81051 3.66458 0.266252
thorax 0.229423 1.81753 2.25205
lowerneck -14.067 13.7438 18.5231
upperneck 21.2274 11.418 9.95226
head 9.83548 7.58782 2.14779
rclavicle 5.06652e-014 5.18828e-014
rhumerus -44.6337 14.6277 -86.3697
rradius 82.0896
rwrist -69.1303
rhand 25.0591 -43.0004
rfingers 7.12502
rthumb 49.2154 -64.6255
lclavicle 5.06652e-014 5.18828e-014
lhumerus -27.6628 -6.33963 83.3089
lradius 55.5025
lwrist 60.4797
lhand -3.64289 14.8603
lfingers 7.12502
lthumb 22.0968 43.6177
rfemur -62.7206 3.67452 19.9455
rtibia 75.3384
rfoot -14.9753 -10.4543
rtoes -8.69732
lfemur -51.4468 -0.806301 -23.357
ltibia 49.356
lfoot -18.8884 1.90539
ltoes -3.25174
30
root 3.46387 14.4762 32.2113 166.799 -84.7443 -143.725
lowerback -9.80943 2.72926 -2.88643
upperback -4.76003 3.71202 0.233872
thorax 0.340638 1.8386 2.21933
lowerneck -13.8631 13.6842 18.5068
upperneck 21.3352 11.3221 10.1367
head 9.82675 7.56132 2.18976
rclavicle -2.95195e-014 3.12092e-014
rhumerus -45.09 14.8778 -86.316
rradius 81.6683
rwrist -68.7106
rhand 25.8903 -43.0785
rfingers 7.12502
rthumb 49.9772 -64.3132
lclavicle -2.95195e-014 3.12092e-014
lhumerus -27.6522 -5.81006 82.9117
lradius 55.0496
lwrist 60.9783
lhand -4.16196 14.772
lfingers 7.12502
lthumb 21.5984 43.5875
rfemur -62.1379 3.39111 19.6051
rtibia 75.0244
rfoot -14.9657 -10.6407
rtoes -9.09967
lfemur -51.3651 -0.80229 -23.3037
ltibia 49.2919
lfoot -18.8559 1.9304
ltoes -3.31178
31
root 3.45942 14.4812 32.1971 166.794 -84.7859 -143.749
lowerback -9.90999 2.75515 -2.8358
upperback -4.71281 3.74727 0.201052
thorax 0.448361 1.85316 2.16769
lowerneck -13.6767 13.6232 18.4931
upperneck 21.452 11.2276 10.287
head 9.82644 7.5335 2.22185
rclavicle -2.89729e-014 -1.98785e-014
rhumerus -45.5467 15.0215 -86.2222
rradius 81.1969
rwrist -68.3027
rhand 26.5417 -43.2084
rfingers 7.12502
rthumb 50.5728 -64.1251
lclavicle -2.89729e-014 -1.98785e-014
lhumerus -27.6573 -5.28542 82.5121
lradius 54.5673
lwrist 61.375
lhand -4.77698 14.5978
lfingers 7.12502
lthumb 21.0077 43.48
rfemur -61.4946 3.08362 19.2509
rtibia 74.6232
rfoot -14.9246 -10.8716
rtoes -9.68587
lfemur -51.2571 -0.851717 -23.2439
ltibia 49.1869
lfoot -18.799 1.9664
ltoes -3.3823
32
root 3.45408 14.4875 32.1838 166.626 -84.854 -143.622
lowerback -10.0005 2.77202 -2.75669
upperback -4.66485 3.76759 0.177715
thorax 0.553568 1.86008 2.10816
lowerneck -13.5099 13.5675 18.4365
upperneck 21.5751 11.146 10.4425
head 9.82823 7.51014 2.26453
rclavicle 6.46796e-014 7.95139e-015
rhumerus -46.0029 15.0923 -86.0722
rradius 80.6826
rwrist -67.9299
rhand 27.0459 -43.3656
rfingers 7.12502
rthumb 51.0326 -64.0288
lclavicle 6.46796e-014 7.95139e-015
lhumerus -27.6835 -4.7239 82.1113
lradius 54.0715
lwrist 61.6701
lhand -5.45154 14.3675
lfingers 7.12502
lthumb 20.3595 43.3203
rfemur -60.7836 2.75571 18.8855
rtibia 74.1325
rfoot -14.8814 -11.0794
rtoes -10.2125
lfemur -51.1163 -0.947646 -23.177
ltibia 49.048
lfoot -18.7272 2.01788
ltoes -3.44826
33
root 3.44751 14.4948 32.1704 166.327 -84.9294 -143.382
lowerback -10.0816 2.78665 -2.66041
upperback -4.61288 3.78308 0.165748
thorax 0.658594 1.86464 2.05002
lowerneck -13.3625 13.507 18.3249
upperneck 21.6987 11.0641 10.6117
head 9.82824 7.4848 2.31975
rclavicle 9.41742e-015 3.18055e-015
rhumerus -46.4553 15.0783 -85.8601
rradius 80.1276
rwrist -67.5904
rhand 27.4335 -43.5469
rfingers 7.12502
rthumb 51.3854 -64.0106
lclavicle 9.41742e-015 3.18055e-015
lhumerus -27.7247 -4.11802 81.7042
lradius 53.5647
lwrist 61.8673
lhand -6.12228 14.1228
lfingers 7.12502
lthumb 19.7148 43.143
rfemur -60.0034 2.39697 18.5266
rtibia 73.5545
rfoot -14.8412 -11.1768
rtoes -10.6318
lfemur -50.9354 -1.06926 -23.0966
ltibia 48.8805
lfoot -18.6486 2.08731
ltoes -3.52134
34
root 3.43992 14.5032 32.1561 165.97 -84.9966 -143.09
lowerback -10.166 2.79942 -2.56362
upperback -4.56004 3.7956 0.16862
thorax 0.765389 1.86793 2.00686
lowerneck -13.2323 13.4425 18.1668
upperneck 21.8227 10.9833 10.7876
head 9.82717 7.45788 2.38415
rclavicle 3.24516e-014 -1.07344e-014
rhumerus -46.8983 14.9889 -85.5845
rradius 79.5307
rwrist -67.2817
rhand 27.7308 -43.715
rfingers 7.12502
rthumb 51.6557 -64.023
lclavicle 3.24516e-014 -1.07344e-014
lhumerus -27.7795 -3.44614 81.2799
lradius 53.051
lwrist 61.9768
lhand -6.73139 13.8996
lfingers 7.12502
lthumb 19.1291 42.9789
rfemur -59.1707 2.04159 18.1797
rtibia 72.8893
rfoot -14.8038 -11.1695
rtoes -11.065
lfemur -50.7303 -1.19127 -23.0029
ltibia 48.6928
lfoot -18.5692 2.16733
ltoes -3.60791
35
root 3.43181 14.5124 32.1417 165.419 -85.1054 -142.597
lowerback -10.2584 2.79307 -2.45737
upperback -4.50958 3.78138 0.178511
thorax 0.875658 1.85777 1.96338
lowerneck -13.1004 13.3818 18.0062
upperneck 21.9511 10.9211 10.9179
head 9.82954 7.4355 2.43614
rclavicle 6.55989e-015 1.07344e-014
rhumerus -47.3203 14.8157 -85.2539
rradius 78.8835
rwrist -66.9962
rhand 27.9624 -43.8645
rfingers 7.12502
rthumb 51.8661 -64.0494
lclavicle 6.55989e-015 1.07344e-014
lhumerus -27.8436 -2.68876 80.8252
lradius 52.5323
lwrist 62.0066
lhand -7.19935 13.7319
lfingers 7.12502
lthumb 18.6791 42.8551
rfemur -58.297 1.67335 17.8265
rtibia 72.1455
rfoot -14.8622 -10.9929
rtoes -11.6852
lfemur -50.5262 -1.36232 -22.903
ltibia 48.4884
lfoot -18.475 2.24903
ltoes -3.68826
